Genre:Comedy | Drama
Language:English
 
http://www.imdb.com/title/tt1531663/

Source:BluRay.720p.x264.DTS-HDChina Thanks!

Format : AVI
Format/Info : Audio Video Interleave
File size : 1.09 GiB
Duration : 1h 37mn
Overall bit rate : 1 609 Kbps

Video
ID : 0
Format : MPEG-4 Visual
Format profile : Advanced Simple@L5
Format settings, BVOP : Yes
Format settings, QPel : No
Format settings, GMC : No warppoints
Format settings, Matrix : Default (H.263)
Codec ID : XVID
Codec ID/Hint : XviD
Duration : 1h 37mn
Bit rate : 1 152 Kbps
Width : 640 pixels
Height : 264 pixels
Display aspect ratio : 2.40:1
Frame rate : 23.976 fps
Color space : YUV
Chroma subsampling : 4:2:0
Bit depth : 8 bits
Scan type : Progressive
Bits/(Pixel*Frame) : 0.284
Stream size : 800 MiB (72%)
Writing library : XviD 1.2.1 (UTC 2008-12-04)

Audio
ID : 1
Format : AC-3
Format/Info : Audio Coding 3
Mode extension : CM (complete main)
Codec ID : 2000
Duration : 1h 37mn
Bit rate mode : Constant
Bit rate : 448 Kbps
Channel(s) : 6 channels
Channel positions : Front: L C R, Side: L R, LFE
Sampling rate : 48.0 KHz
Bit depth : 16 bits
Stream size : 311 MiB (28%)
Alignment : Aligned on interleaves
Interleave, duration : 42 ms (1.00 video frame)
Interleave, preload duration : 512 ms


Plot:
When an alcoholic relapses, causing him to lose his wife and his job, he holds a yard sale on his front lawn in an attempt to start over. A new neighbor might be the key to his return to form.
 
http://www.pix2links.com/images/68790134234429588873.png 
http://www.pix2links.com/images/26573995278629755570.png 
http://www.pix2links.com/images/01381046945374152256.png 
http://www.pix2links.com/images/60699790348585487637.png 
http://www.pix2links.com/images/47831354610091342719.png